<svg width="162" height="333" viewBox="0 0 162 333" fill="none" xmlns="http://www.w3.org/2000/svg">
<path d="M85.7274 12.5781C77.7481 12.5781 56.8823 15.0674 47.5517 21.4821C35.2562 29.9351 30.5201 52.6159 27.4861 66.4712C23.6684 83.9052 34.2861 98.5822 45.5049 111.016C53.2041 119.548 89.7709 116.115 111.692 112.463C121.833 110.773 126.752 94.7522 130.229 78.8365C134.576 58.943 129.728 43.8856 125.328 40.6645C114.443 32.3599 105.62 25.3918 100.685 22.4691C98.2141 21.1138 95.8117 20.0181 86.8467 16.0018" stroke="black" stroke-width="25.1576" stroke-linecap="round"/>
<path d="M74.0419 117.693C74.0419 118.233 74.0419 149.913 73.5469 200.414C72.0617 225.357 69.682 239.551 67.6222 253.885C66.9219 260.045 66.9219 263.947 66.9219 267.967" stroke="black" stroke-width="25.1576" stroke-linecap="round"/>
<path d="M12.9844 184.879C13.1644 184.879 45.2547 184.782 96.2065 183.946C115.161 183.206 120.102 181.825 124.037 181C127.971 180.175 130.749 179.948 133.611 179.715" stroke="black" stroke-width="25.1576" stroke-linecap="round"/>
<path d="M12.5781 320.341C15.5485 317.387 31.2633 305.53 43.9877 295.801C56.2951 286.391 63.6221 279.73 72.3616 274.422C84.5853 266.998 99.8544 280.706 114.032 293.257C126.949 305.689 133.503 310.656 138.451 313.828C140.909 315.398 143.262 316.888 149.006 319.476" stroke="black" stroke-width="25.1576" stroke-linecap="round"/>
</svg>
