<svg width="608" height="348" viewBox="0 0 608 348" fill="none" xmlns="http://www.w3.org/2000/svg">
<path d="M293.183 34.4434C293.023 34.4434 285.484 34.4434 273.207 35.0126C258.462 35.6962 249.514 62.5559 244.822 75.2496C241.794 83.4407 245.003 91.2956 247.031 95.8209C253.729 110.764 278.275 127.015 298.177 134.698C309.088 138.91 319.284 134.535 324.878 131.683C335.712 126.159 342.108 113.719 344.564 99.6714C347.551 82.5919 343.286 66.9927 340.335 59.5278C336.461 49.7266 325.384 44.9422 316.279 41.4079C305.666 38.2369 298.096 36.5455 293.429 35.7958C291.096 35.5062 288.832 35.4008 280.629 34.9106" stroke="black" stroke-width="25.1576" stroke-linecap="round"/>
<path d="M304.128 141.18C304.128 141.451 304.128 141.723 304.128 158.947C304.128 176.171 304.128 210.341 303.845 236.416C303.563 262.492 302.998 279.44 302.416 296.9" stroke="black" stroke-width="25.1576" stroke-linecap="round"/>
<path d="M12.5801 172.564C16.573 172.835 31.8349 179.166 61.4414 197.651C91.3834 216.345 105.881 218.596 115.876 219.137C137.356 220.3 163.478 186.68 176.557 177.322C185.04 171.253 191.47 164.828 196.579 161.677C201.12 158.876 206.299 158.838 212.464 160.846C231.117 166.92 241.153 178.763 258.654 189.106C275.06 198.802 291.866 204.098 301.851 205.786C324.6 209.631 348.507 179.276 372.02 167.658C378.685 164.365 384.04 161.905 388.948 160.374C400.216 156.86 413.1 170.134 426.987 178.507C457.952 197.177 496.932 204.578 501.58 205.786L595.08 172.564" stroke="black" stroke-width="25.1576" stroke-linecap="round"/>
<path d="M123.715 207.291C123.515 207.291 122.495 213.557 120.572 225.107C118.504 234.504 116.225 244.667 114.292 254.866C113.543 259.139 113.262 261.579 111.658 266.608" stroke="black" stroke-width="25.1576" stroke-linecap="round"/>
<path d="M504.58 178.443V260.862" stroke="black" stroke-width="25.1576" stroke-linecap="round"/>
<path d="M505.58 259.443C508.913 260.005 520.023 266.173 529.912 275.523C536.983 282.108 544.941 289.861 551.919 296.702C554.997 299.574 557.135 301.227 559.337 302.931" stroke="black" stroke-width="25.1576" stroke-linecap="round"/>
<path d="M504.234 259.443C502.019 261.322 491.484 271.402 481.367 281.32C478.911 283.928 476.047 287.042 473.825 289.701C471.604 292.36 470.112 294.47 466.58 299.48" stroke="black" stroke-width="25.1576" stroke-linecap="round"/>
<path d="M299.004 306.043C294.527 307.46 278.257 315.853 267.741 323.016C265.529 324.511 263.182 326.043 260.931 327.604C258.68 329.166 256.596 330.711 253.096 333.295" stroke="black" stroke-width="25.1576" stroke-linecap="round"/>
<path d="M304.16 298.82C307.075 299.198 320.444 301.06 335.603 306.636C349.753 311.653 360.99 316.275 365.981 319.509C368.456 321.108 370.815 322.622 373.245 324.181" stroke="black" stroke-width="25.1576" stroke-linecap="round"/>
<path d="M110.341 267.705C106.734 268.285 94.5324 270.915 78.1988 279.136C69.0569 285.192 62.4687 290.456 58.7314 294.284C56.882 296.23 55.1283 298.183 53.2363 301.548" stroke="black" stroke-width="25.1576" stroke-linecap="round"/>
<path d="M113.465 269.363C114.251 272.48 117.951 284.056 121.38 306.617C122.234 312.51 123.173 317.247 124.236 321.517C125.298 325.788 126.456 329.448 128.292 334.893" stroke="black" stroke-width="25.1576" stroke-linecap="round"/>
<path d="M122.623 202.194C122.623 202.013 122.623 190.68 121.935 172.281C121.247 165.123 119.871 162.386 118.563 159.546C117.255 156.705 116.056 153.844 112.543 146.99" stroke="black" stroke-width="25.1576" stroke-linecap="round"/>
<path d="M113.417 59.7961C108.652 59.2626 93.7543 61.3338 85.5945 67.6091C76.6356 74.4991 75.6478 89.3488 74.3319 99.6302C72.7535 111.963 82.8858 124.052 91.233 133.221C95.9567 138.41 102.358 140.499 110.294 141.572C124.182 143.448 135.791 140.619 140.894 136.909C150.54 129.897 155.554 117.907 158.639 107.047C161.002 98.7273 160.322 88.7907 159.174 80.8117C150.026 72.1815 140.321 67.7775 133.676 64.2502C130.008 62.3394 125.739 60.1832 116.982 56.0137" stroke="black" stroke-width="25.1576" stroke-linecap="round"/>
<path d="M504.238 192.215C504.238 191.853 504.238 174.31 504.071 146.698C503.904 136.442 503.571 133.811 503.211 131.061C502.852 128.311 502.478 125.521 502.092 119.867" stroke="black" stroke-width="25.1576" stroke-linecap="round"/>
<path d="M504.812 12.9336C500.742 12.9336 489.283 13.7623 481.751 16.7935C475.981 19.1161 470.429 32.7702 465.907 44.7806C460.96 57.92 465.006 71.1379 469.98 81.89C474.058 90.7061 478.938 94.2025 487.411 98.8628C493.767 102.359 503.141 102.922 515.757 102.905C525.902 102.893 534.492 94.7478 541.682 88.016C552.173 78.1924 555.232 68.2888 557.463 60.9175C559.908 52.8431 556.63 41.5799 550.767 33.3854C541.866 20.9422 529.856 16.7445 523.252 13.8378C521.629 13.2485 520.406 12.9649 517.368 12.8031C514.33 12.6414 509.516 12.6103 504.556 12.5781" stroke="black" stroke-width="25.1576" stroke-linecap="round"/>
</svg>
